<svg width="110" height="31" viewBox="0 0 110 31" fill="none" xmlns="http://www.w3.org/2000/svg">
<rect y="0.374512" width="30" height="30" rx="6" fill="#3A6DE6"/>
<g filter="url(#filter0_d_448_8923)">
<path d="M14.0976 7.13233C14.4396 6.31224 15.6015 6.31225 15.9435 7.13233L21.93 21.4859C22.3076 22.3913 21.2915 23.2425 20.4663 22.7121L15.5613 19.5591C15.2319 19.3474 14.8092 19.3474 14.4798 19.5591L9.57476 22.7121C8.74956 23.2425 7.73348 22.3913 8.11109 21.4859L14.0976 7.13233Z" fill="white"/>
<path d="M16.0358 7.09384C15.6595 6.19175 14.3816 6.19174 14.0053 7.09384L8.0188 21.4474C7.60343 22.4434 8.72111 23.3797 9.62883 22.7962L14.5339 19.6432C14.8304 19.4527 15.2107 19.4527 15.5072 19.6432L20.4123 22.7962C21.32 23.3797 22.4377 22.4434 22.0223 21.4474L16.0358 7.09384Z" stroke="white" stroke-width="0.2"/>
</g>
<path fill-rule="evenodd" clip-rule="evenodd" d="M15.0205 19.4001V6.51709C15.3966 6.51691 15.7728 6.72193 15.9439 7.13215L21.9305 21.4858C22.3081 22.3911 21.292 23.2423 20.4668 22.7119L15.5617 19.5589C15.3969 19.453 15.2087 19.4 15.0205 19.4001Z" fill="#EBF0FC"/>
<path d="M38.3867 14.2368H41.8672C41.8789 14.0786 41.8848 13.1235 41.8848 11.3716H41.1729C40.7393 12.3501 40.2559 13.2407 39.7227 14.0435C39.1953 13.3521 38.668 12.7017 38.1406 12.0923C39.1016 10.604 39.8105 8.85205 40.2676 6.83643L42.6055 7.24072C42.4297 7.91455 42.2363 8.55908 42.0254 9.17432H46.543V11.3716H44.2402V14.2368H47V16.4341H44.0557C44.0088 16.7446 43.9502 17.0464 43.8799 17.3394C45.0752 18.5054 46.2383 19.7212 47.3691 20.9868L45.4707 22.7095C44.6855 21.6665 43.8916 20.6733 43.0889 19.73C42.3154 21.4644 41.1523 22.9907 39.5996 24.3091C39.0605 23.4067 38.5625 22.6626 38.1055 22.0767C39.9453 20.6646 41.1143 18.7837 41.6123 16.4341H38.3867V14.2368ZM47.4395 23.9224V8.36572H55.0156V23.8169H52.6074V22.3403H49.8477V23.9224H47.4395ZM52.6074 10.6685H49.8477V20.0376H52.6074V10.6685ZM57.2129 24.186V7.64502H72.7871V24.1685H70.3086V23.3774H59.6914V24.186H57.2129ZM70.3086 9.98291H59.6914V21.0396H70.3086V9.98291ZM63.8223 10.3345H66.2656C66.2598 11.1606 66.2393 11.8989 66.2041 12.5493H69.7812V14.7642H66.0195C65.9785 15.0806 65.9199 15.3882 65.8438 15.687C67.1328 16.5249 68.5156 17.4888 69.9922 18.5786L68.3574 20.7056C67.3672 19.7915 66.2246 18.8071 64.9297 17.7524C64.1152 18.9771 62.8672 19.9614 61.1855 20.7056C60.8574 20.1196 60.3828 19.3755 59.7617 18.4731C61.8945 17.7349 63.1484 16.4985 63.5234 14.7642H60.2188V12.5493H63.7607C63.7959 11.8931 63.8164 11.1548 63.8223 10.3345ZM74.4219 9.87744H76.3027V7.04736H78.7285V9.87744H80.5566V12.1274H78.7285V14.2632L80.4688 13.6567C80.457 14.3013 80.4746 15.1157 80.5215 16.1001C79.9355 16.2935 79.3379 16.4985 78.7285 16.7153V22.0942C78.7285 22.7212 78.5645 23.1987 78.2363 23.5269C77.9141 23.8608 77.4043 24.0483 76.707 24.0894C76.0156 24.1304 75.3828 24.1567 74.8086 24.1685C74.6914 23.3247 74.5391 22.5103 74.3516 21.7251C74.7734 21.7603 75.1953 21.7778 75.6172 21.7778C76.0742 21.7778 76.3027 21.5435 76.3027 21.0747V17.5942C75.7227 17.8052 75.1309 18.0278 74.5273 18.2622L74.2285 15.6958C74.8848 15.5083 75.5762 15.2974 76.3027 15.063V12.1274H74.4219V9.87744ZM82.1562 24.1509V18.3677C81.8281 18.772 81.4883 19.1646 81.1367 19.5454C80.5508 18.8423 79.918 18.1509 79.2383 17.4712C81.5703 15.4028 83.208 12.9536 84.1514 10.1235H80.9258V7.87354H91.6484V10.1235H86.7178C86.2021 11.5767 85.5957 12.9478 84.8984 14.2368H91.0684V24.1333H88.6777V23.1665H84.5469V24.1509H82.1562ZM88.6777 16.4517H84.5469V20.9517H88.6777V16.4517ZM94.7598 24.3091V18.4116C94.2324 18.5112 93.6875 18.6079 93.125 18.7017C92.8555 17.9868 92.5625 17.313 92.2461 16.6802C94.6953 16.3755 96.7637 16.0151 98.4512 15.5991C97.8301 15.2183 97.2441 14.7759 96.6934 14.272C95.9785 14.7407 95.2051 15.186 94.373 15.6079C93.9395 15.0103 93.5 14.4712 93.0547 13.9907C95.0469 13.1353 96.6699 12.0571 97.9238 10.7563H100.648C100.461 10.9966 100.262 11.231 100.051 11.4595H106.625V10.3696H95.3574V12.5669H92.9492V8.3833H99.7695L99.2246 7.11768L102.23 6.81885C102.395 7.24072 102.579 7.76221 102.784 8.3833H109.033V12.5669H106.924V13.1294C106.045 14.061 104.964 14.8813 103.681 15.5903C105.374 15.9771 107.393 16.2407 109.736 16.3813L108.857 18.5435C108.301 18.4614 107.762 18.3765 107.24 18.2886V24.3091H104.85V23.4653H97.1504V24.3091H94.7598ZM101.053 14.7905C102.043 14.3862 102.939 13.8735 103.742 13.2524H98.4248C99.1982 13.8735 100.074 14.3862 101.053 14.7905ZM101.026 16.7856C99.626 17.2837 97.9502 17.7407 95.999 18.1567H106.493C104.343 17.7642 102.521 17.3071 101.026 16.7856ZM104.85 20.1606H97.1504V21.4614H104.85V20.1606Z" fill="#173599"/>
<defs>
<filter id="filter0_d_448_8923" x="1.82905" y="4.31738" width="22.383" height="24.7593" filterUnits="userSpaceOnUse" color-interpolation-filters="sRGB">
<feFlood flood-opacity="0" result="BackgroundImageFix"/>
<feColorMatrix in="SourceAlpha" type="matrix" values="0 0 0 0 0 0 0 0 0 0 0 0 0 0 0 0 0 0 127 0" result="hardAlpha"/>
<feOffset dx="-2" dy="2"/>
<feGaussianBlur stdDeviation="2"/>
<feComposite in2="hardAlpha" operator="out"/>
<feColorMatrix type="matrix" values="0 0 0 0 0.0431373 0 0 0 0 0.12549 0 0 0 0 0.45098 0 0 0 0.65 0"/>
<feBlend mode="normal" in2="BackgroundImageFix" result="effect1_dropShadow_448_8923"/>
<feBlend mode="normal" in="SourceGraphic" in2="effect1_dropShadow_448_8923" result="shape"/>
</filter>
</defs>
</svg>
