<svg width="17" height="17" viewBox="0 0 17 17" fill="none" xmlns="http://www.w3.org/2000/svg">
<path fill-rule="evenodd" clip-rule="evenodd" d="M3.76562 2.10254C3.76562 1.55025 4.21334 1.10254 4.76562 1.10254H12.0482C12.6005 1.10254 13.0482 1.55025 13.0482 2.10254V15.6023C13.0482 16.1546 12.6005 16.6023 12.0482 16.6023H4.76563C4.21334 16.6023 3.76562 16.1546 3.76562 15.6023V2.10254ZM9.35859 15.0132C9.35859 15.5389 8.93247 15.965 8.40683 15.965C7.88119 15.965 7.45508 15.5389 7.45508 15.0132C7.45508 14.4876 7.88119 14.0615 8.40683 14.0615C8.93247 14.0615 9.35859 14.4876 9.35859 15.0132ZM7.4619 1.96053C7.26547 1.96053 7.10624 2.11834 7.10624 2.313C7.10624 2.50767 7.26547 2.66548 7.4619 2.66548H9.35201C9.54843 2.66548 9.70767 2.50767 9.70767 2.313C9.70767 2.11834 9.54843 1.96053 9.35201 1.96053H7.4619Z" fill="#C1C1C1"/>
<rect x="4.8866" y="3.32666" width="7.04084" height="10.1512" rx="0.5" fill="white"/>
</svg>
