<svg width="17" height="17" viewBox="0 0 17 17" fill="none" xmlns="http://www.w3.org/2000/svg">
<path fill-rule="evenodd" clip-rule="evenodd" d="M9.05799 0.730901C8.67841 0.468104 8.16669 0.506814 7.83096 0.823724L7.06099 1.55053C5.92307 2.62465 4.4175 3.223 2.8527 3.223C2.47649 3.223 2.17151 3.52798 2.17151 3.90419L2.17152 6.51097C2.17153 9.21507 3.37878 11.9841 5.46369 13.7061L8.40689 16.137L11.35 13.7062C13.4349 11.9841 14.6422 9.21506 14.6422 6.51094L14.6422 3.74368C14.6422 3.45612 14.409 3.223 14.1215 3.223C13.1683 3.223 12.2377 2.93232 11.454 2.38973L9.05799 0.730901ZM10.964 7.2335C11.2958 6.90163 11.2958 6.36355 10.964 6.03168C10.6321 5.6998 10.094 5.6998 9.76214 6.03168L7.93563 7.85818L7.05138 6.97395C6.71951 6.64208 6.18143 6.64208 5.84956 6.97396C5.51769 7.30583 5.51769 7.84391 5.84957 8.17578L7.33472 9.66092C7.6666 9.99279 8.20467 9.99279 8.53655 9.66091L10.964 7.2335Z" fill="#C1C1C1"/>
</svg>
